<?xml version="1.0" encoding="UTF-8" standalone="no"?>
<svg
   version="1.1"
   id="Ebene_1"
   x="0px"
   y="0px"
   viewBox="0 0 388876.95 388876.95"
   enable-background="new 0 0 623.6 623.6"
   xml:space="preserve"
   width="388876.94"
   height="388876.94"
   xmlns="http://www.w3.org/2000/svg"
   xmlns:svg="http://www.w3.org/2000/svg"><defs
   id="defs17" />
<path
   stroke="#ffffff"
   stroke-width="5"
   stroke-miterlimit="10"
   d="m 437.1,239.5 c -18.6,-14 -38.9,-27.4 -60.5,-39.9 -21.7,-12.5 -43.4,-23.3 -64.8,-32.5 -35.5,-15.2 -70,-25.6 -101.6,-31.3 C 141.6,123.6 86.9,134.4 66.3,170 v 0 c 49,-84.7 140.6,-141.7 245.5,-141.7 41.2,0 77.9,42 101.6,107.5 10.9,30.2 19.1,65.3 23.7,103.7 z"
   id="path2"
   style="fill:#0000ff" />
<path
   stroke="#ffffff"
   stroke-width="5"
   stroke-miterlimit="10"
   d="m 515,311.8 c -20.7,24.5 -47,49.2 -77.9,72.4 2.8,-23.1 4.3,-47.3 4.3,-72.4 0,-25.1 -1.5,-49.3 -4.3,-72.4 C 432.5,201.1 424.3,165.9 413.4,135.8 389.7,70.3 353,28.3 311.8,28.3 c 104.9,0 196.5,57 245.5,141.7 v 0 c 20.6,35.7 2.5,88.5 -42.3,141.8 z"
   id="path4"
   style="fill:#ff9955" />
<path
   stroke="#ffffff"
   stroke-width="5"
   stroke-miterlimit="10"
   d="m 595.3,311.8 c 0,51.6 -13.8,100 -37.9,141.8 v 0 c -20.6,35.7 -75.3,46.4 -143.9,34.2 -31.6,-5.6 -66.1,-16.1 -101.6,-31.3 21.4,-9.1 43.1,-20 64.8,-32.5 21.7,-12.5 41.9,-25.9 60.5,-39.9 30.9,-23.2 57.2,-47.8 77.9,-72.4 C 559.9,258.4 578,205.6 557.4,170 v 0 c 24.1,41.8 37.9,90.2 37.9,141.8 z"
   id="path6"
   style="fill:#0000ff" />
<path
   stroke="#ffffff"
   stroke-width="5"
   stroke-miterlimit="10"
   d="m 557.3,453.6 c -49,84.7 -140.6,141.7 -245.5,141.7 -41.2,0 -77.9,-42 -101.6,-107.5 -10.9,-30.2 -19.1,-65.3 -23.7,-103.6 18.6,14 38.9,27.4 60.5,39.9 21.7,12.5 43.4,23.4 64.8,32.5 35.5,15.2 70,25.7 101.6,31.3 68.6,12.1 123.3,1.3 143.9,-34.3 z"
   id="path8"
   style="fill:#ff9955" />
<path
   stroke="#ffffff"
   stroke-width="5"
   stroke-miterlimit="10"
   d="m 311.8,595.3 c -104.9,0 -196.5,-57 -245.5,-141.7 v 0 c -20.6,-35.7 -2.5,-88.4 42.3,-141.7 20.7,-24.5 47,-49.2 77.9,-72.4 -2.8,23.1 -4.3,47.3 -4.3,72.4 0,25.1 1.5,49.3 4.3,72.4 4.6,38.3 12.8,73.5 23.7,103.6 23.8,65.4 60.4,107.4 101.6,107.4 z"
   id="path10"
   style="fill:#0000ff" />
<path
   stroke="#ffffff"
   stroke-width="5"
   stroke-miterlimit="10"
   d="m 311.8,167.1 c -21.4,9.1 -43.1,20 -64.8,32.5 -21.7,12.5 -41.9,25.9 -60.5,39.9 -30.9,23.2 -57.2,47.8 -77.9,72.4 C 63.8,365.2 45.7,418 66.3,453.6 v 0 C 42.2,411.9 28.4,363.5 28.4,311.8 28.4,260.1 42.2,211.8 66.3,170 v 0 c 20.6,-35.7 75.3,-46.4 143.9,-34.2 31.6,5.7 66.1,16.1 101.6,31.3 z"
   id="path12"
   style="fill:#ff9955" />
</svg>
