<?xml version="1.0" encoding="UTF-8" standalone="no"?>
<svg
   version="1.1"
   id="Ebene_1"
   x="0px"
   y="0px"
   viewBox="0 0 571.90005 572.00002"
   enable-background="new 0 0 623.6 623.6"
   xml:space="preserve"
   width="571.90002"
   height="572"
   xmlns="http://www.w3.org/2000/svg"
   xmlns:svg="http://www.w3.org/2000/svg"><defs
   id="defs17" />
<path
   stroke="#ffffff"
   stroke-width="5"
   stroke-miterlimit="10"
   d="M 411.2,213.7 C 392.6,199.7 372.3,186.3 350.7,173.8 329,161.3 307.3,150.5 285.9,141.3 250.4,126.1 215.9,115.7 184.3,110 115.7,97.8 61,108.6 40.4,144.2 v 0 C 89.4,59.5 181,2.5 285.9,2.5 c 41.2,0 77.9,42 101.6,107.5 10.9,30.2 19.1,65.3 23.7,103.7 z"
   id="path2"
   style="fill:#0000ff" />
<path
   stroke="#ffffff"
   stroke-width="5"
   stroke-miterlimit="10"
   d="m 489.1,286 c -20.7,24.5 -47,49.2 -77.9,72.4 2.8,-23.1 4.3,-47.3 4.3,-72.4 0,-25.1 -1.5,-49.3 -4.3,-72.4 C 406.6,175.3 398.4,140.1 387.5,110 363.8,44.5 327.1,2.5 285.9,2.5 c 104.9,0 196.5,57 245.5,141.7 v 0 c 20.6,35.7 2.5,88.5 -42.3,141.8 z"
   id="path4"
   style="fill:#ff9955" />
<path
   stroke="#ffffff"
   stroke-width="5"
   stroke-miterlimit="10"
   d="m 569.4,286 c 0,51.6 -13.8,100 -37.9,141.8 v 0 C 510.9,463.5 456.2,474.2 387.6,462 356,456.4 321.5,445.9 286,430.7 c 21.4,-9.1 43.1,-20 64.8,-32.5 21.7,-12.5 41.9,-25.9 60.5,-39.9 30.9,-23.2 57.2,-47.8 77.9,-72.4 44.8,-53.3 62.9,-106.1 42.3,-141.7 v 0 c 24.1,41.8 37.9,90.2 37.9,141.8 z"
   id="path6"
   style="fill:#0000ff" />
<path
   stroke="#ffffff"
   stroke-width="5"
   stroke-miterlimit="10"
   d="m 531.4,427.8 c -49,84.7 -140.6,141.7 -245.5,141.7 -41.2,0 -77.9,-42 -101.6,-107.5 -10.9,-30.2 -19.1,-65.3 -23.7,-103.6 18.6,14 38.9,27.4 60.5,39.9 21.7,12.5 43.4,23.4 64.8,32.5 35.5,15.2 70,25.7 101.6,31.3 68.6,12.1 123.3,1.3 143.9,-34.3 z"
   id="path8"
   style="fill:#ff9955" />
<path
   stroke="#ffffff"
   stroke-width="5"
   stroke-miterlimit="10"
   d="M 285.9,569.5 C 181,569.5 89.4,512.5 40.4,427.8 v 0 c -20.6,-35.7 -2.5,-88.4 42.3,-141.7 20.7,-24.5 47,-49.2 77.9,-72.4 -2.8,23.1 -4.3,47.3 -4.3,72.4 0,25.1 1.5,49.3 4.3,72.4 4.6,38.3 12.8,73.5 23.7,103.6 23.8,65.4 60.4,107.4 101.6,107.4 z"
   id="path10"
   style="fill:#0000ff" />
<path
   stroke="#ffffff"
   stroke-width="5"
   stroke-miterlimit="10"
   d="m 285.9,141.3 c -21.4,9.1 -43.1,20 -64.8,32.5 -21.7,12.5 -41.9,25.9 -60.5,39.9 -30.9,23.2 -57.2,47.8 -77.9,72.4 -44.8,53.3 -62.9,106.1 -42.3,141.7 v 0 C 16.3,386.1 2.5,337.7 2.5,286 2.5,234.3 16.3,186 40.4,144.2 v 0 C 61,108.5 115.7,97.8 184.3,110 c 31.6,5.7 66.1,16.1 101.6,31.3 z"
   id="path12"
   style="fill:#ff9955" />
</svg>
