<?xml version="1.0" encoding="UTF-8" standalone="no"?>
<svg
   version="1.1"
   id="Layer_1"
   x="0px"
   y="0px"
   viewBox="0 0 1614.1002 1614.1002"
   enable-background="new 0 0 1614.1002 1614.1002"
   xml:space="preserve"
   xmlns:xlink="http://www.w3.org/1999/xlink"
   xmlns="http://www.w3.org/2000/svg"
   xmlns:svg="http://www.w3.org/2000/svg"><defs
   id="defs19"><linearGradient
     id="linearGradient3208"><stop
       style="stop-color:#002255;stop-opacity:1;"
       offset="0"
       id="stop3204" /><stop
       style="stop-color:#002255;stop-opacity:0;"
       offset="1"
       id="stop3206" /></linearGradient><linearGradient
     id="linearGradient3178"><stop
       style="stop-color:#002255;stop-opacity:1;"
       offset="0"
       id="stop3174" /><stop
       style="stop-color:#002255;stop-opacity:0;"
       offset="1"
       id="stop3176" /></linearGradient><linearGradient
     id="linearGradient3148"><stop
       style="stop-color:#002255;stop-opacity:1;"
       offset="0"
       id="stop3144" /><stop
       style="stop-color:#002255;stop-opacity:0;"
       offset="1"
       id="stop3146" /></linearGradient><linearGradient
     id="linearGradient3118"><stop
       style="stop-color:#003380;stop-opacity:1;"
       offset="0"
       id="stop3114" /><stop
       style="stop-color:#003380;stop-opacity:0;"
       offset="1"
       id="stop3116" /></linearGradient><linearGradient
     id="linearGradient3088"><stop
       style="stop-color:#0044aa;stop-opacity:1;"
       offset="0"
       id="stop3084" /><stop
       style="stop-color:#0044aa;stop-opacity:0;"
       offset="1"
       id="stop3086" /></linearGradient><linearGradient
     id="linearGradient3060"><stop
       style="stop-color:#0044aa;stop-opacity:1;"
       offset="0"
       id="stop3056" /><stop
       style="stop-color:#0044aa;stop-opacity:0;"
       offset="1"
       id="stop3058" /></linearGradient><filter
     style="color-interpolation-filters:sRGB"
     id="filter3008"
     x="-0.037599865"
     y="-0.021062282"
     width="1.0751997"
     height="1.0421246"><feGaussianBlur
       stdDeviation="8.9686789"
       id="feGaussianBlur3010" /></filter><linearGradient
     xlink:href="#linearGradient3060"
     id="linearGradient3064"
     x1="21.872572"
     y1="546.72876"
     x2="637.39313"
     y2="546.72876"
     gradientUnits="userSpaceOnUse" /><linearGradient
     xlink:href="#linearGradient3088"
     id="linearGradient3090"
     x1="685.5639"
     y1="634.25778"
     x2="1607.0502"
     y2="634.25778"
     gradientUnits="userSpaceOnUse" /><filter
     style="color-interpolation-filters:sRGB"
     id="filter3092"
     x="-0.024456295"
     y="-0.030134274"
     width="1.0489126"
     height="1.0602685"><feGaussianBlur
       stdDeviation="9.3900585"
       id="feGaussianBlur3094" /></filter><linearGradient
     xlink:href="#linearGradient3118"
     id="linearGradient3120"
     x1="245.9248"
     y1="1227.1694"
     x2="1121.491"
     y2="1227.1694"
     gradientUnits="userSpaceOnUse" /><filter
     style="color-interpolation-filters:sRGB"
     id="filter3122"
     x="-0.02521445"
     y="-0.029057711"
     width="1.0504289"
     height="1.0581154"><feGaussianBlur
       stdDeviation="9.1987169"
       id="feGaussianBlur3124" /></filter><linearGradient
     xlink:href="#linearGradient3148"
     id="linearGradient3150"
     x1="492.60906"
     y1="386.9307"
     x2="1368.1754"
     y2="386.9307"
     gradientUnits="userSpaceOnUse" /><filter
     style="color-interpolation-filters:sRGB"
     id="filter3152"
     x="-0.025214447"
     y="-0.029057711"
     width="1.0504289"
     height="1.0581154"><feGaussianBlur
       stdDeviation="9.1987174"
       id="feGaussianBlur3154" /></filter><linearGradient
     xlink:href="#linearGradient3178"
     id="linearGradient3180"
     x1="998.232"
     y1="1067.3713"
     x2="1570.7032"
     y2="1067.3713"
     gradientUnits="userSpaceOnUse" /><filter
     style="color-interpolation-filters:sRGB"
     id="filter3182"
     x="-0.037599857"
     y="-0.021062286"
     width="1.0751997"
     height="1.0421246"><feGaussianBlur
       stdDeviation="8.9686811"
       id="feGaussianBlur3184" /></filter><linearGradient
     xlink:href="#linearGradient3208"
     id="linearGradient3210"
     x1="7.0501"
     y1="979.84245"
     x2="928.5365"
     y2="979.84245"
     gradientUnits="userSpaceOnUse" /><filter
     style="color-interpolation-filters:sRGB"
     id="filter3212"
     x="-0.024456292"
     y="-0.030134279"
     width="1.0489126"
     height="1.0602686"><feGaussianBlur
       stdDeviation="9.3900583"
       id="feGaussianBlur3214" /></filter></defs>
<g
   id="layer1"><rect
     style="fill:#fcfcff;fill-opacity:1"
     id="rect1114"
     width="1614.1005"
     height="1614.1003"
     x="0"
     y="-2.1013163e-07" /></g><g
   id="g14"
   style="display:inline">
	<path
   d="m 1111.4918,1167.7117 c 12.699,-133.3132 10.5593,-258.6179 8.2264,-320.4229 l -143.7966,249.063 0.2117,0.3142 c -0.0488,0.033 -0.2675,0.1794 -0.64,0.4279 l -0.493,0.8541 h -0.7924 c -17.7061,11.7334 -154.6073,101.3115 -316.7206,175.4233 -101.9248,46.5959 -193.8531,78.1162 -273.2319,93.6855 -51.2694,10.0562 -97.4708,13.4342 -138.3306,10.1848 144.3978,142.1158 342.5173,229.8084 561.1253,229.8084 60.0491,0 118.5476,-6.6301 174.8169,-19.1731 29.5822,-34.9309 54.8084,-82.5996 75.3447,-142.5306 25.5803,-74.6485 43.8427,-168.0582 54.2801,-277.6346 z"
   id="path2"
   style="fill:url(#linearGradient3120);fill-opacity:1;filter:url(#filter3122)" />
	<path
   d="m 639.0999,516.152 h 0.7925 c 17.7064,-11.7336 154.6073,-101.3115 316.7205,-175.4233 101.9247,-46.5958 193.853,-78.1162 273.2318,-93.6854 51.2694,-10.0563 97.4708,-13.4343 138.3307,-10.1849 C 1223.7776,94.7427 1025.6581,7.0501 807.0501,7.0501 c -60.0491,0 -118.5476,6.6301 -174.817,19.173 -29.582,34.9311 -54.8083,82.5997 -75.3447,142.5306 -25.5801,74.6484 -43.8427,168.0583 -54.2801,277.6346 -12.699,133.3133 -10.5593,258.618 -8.2264,320.423 l 143.7965,-249.063 -0.2115,-0.3142 c 0.0487,-0.0328 0.2673,-0.1794 0.6399,-0.4278 z"
   id="path4"
   style="fill:url(#linearGradient3150);fill-opacity:1;fill-rule:nonzero;filter:url(#filter3152)" />
	<path
   d="m 1234.75,271.2556 c -77.4375,15.1711 -167.4641,46.0602 -267.5786,91.8093 -121.8022,55.659 -229.2493,120.1644 -281.6075,153.0872 h 287.593 l 0.1664,-0.3403 c 0.0529,0.0258 0.2892,0.1418 0.6906,0.3403 h 0.9865 l 0.396,0.6862 c 19.0148,9.4673 165.0419,83.2381 310.2812,186.5763 91.3157,64.9715 164.5774,128.8236 217.75,189.783 34.4314,39.4731 60.5011,77.8907 78.1187,114.9889 16.6426,-64.2667 25.5039,-131.6661 25.5039,-201.1363 0,-209.0386 -80.1853,-399.3416 -211.4622,-541.8555 -44.9881,-8.0972 -98.7911,-6.0956 -160.838,6.0609 z"
   id="path6"
   style="fill:url(#linearGradient3090);fill-opacity:1;filter:url(#filter3092)" />
	<path
   d="M 1484.9116,909.5518 C 1433.0543,850.0745 1361.2903,787.5538 1271.613,723.7265 1162.51,646.0722 1052.9231,585.2729 998.232,556.3908 l 143.7966,249.063 0.3779,-0.0261 c 0,0.0587 0.022,0.3212 0.051,0.7682 l 0.493,0.8542 -0.3961,0.6861 c 1.3085,21.2008 10.4347,184.5495 -6.4392,361.9996 -10.6091,111.5674 -29.2759,206.9398 -55.4819,283.4685 -16.969,49.5552 -37.2048,91.3409 -60.5239,125.1475 261.8224,-72.1638 469.8517,-274.058 550.5938,-532.208 -15.4537,-43.1066 -44.1329,-88.8134 -85.7911,-136.592 z"
   id="path8"
   style="fill:url(#linearGradient3180);fill-opacity:1;filter:url(#filter3182)" />
	<path
   d="m 379.3502,1342.8445 c 77.4375,-15.1711 167.4641,-46.0602 267.5786,-91.8092 121.8022,-55.6591 229.2494,-120.1644 281.6077,-153.0873 H 640.9433 l -0.1664,0.3403 c -0.0529,-0.026 -0.2892,-0.1418 -0.6906,-0.3403 h -0.9865 l -0.396,-0.6862 C 619.689,1087.7945 473.6618,1014.0237 328.4225,910.6856 237.1069,845.7141 163.8453,781.862 110.6726,720.9026 76.2411,681.4296 50.1714,643.012 32.5538,605.9138 15.9113,670.1805 7.0501,737.58 7.0501,807.0501 c 0,209.0385 80.1852,399.3415 211.4622,541.8554 44.9881,8.0972 98.791,6.0955 160.8379,-6.061 z"
   id="path10"
   style="fill:url(#linearGradient3210);fill-opacity:1;filter:url(#filter3212)" />
	<path
   d="m 129.1885,704.5483 c 51.8573,59.4772 123.6213,121.998 213.2985,185.8253 109.1033,77.6542 218.6901,138.4536 273.3813,167.3356 l -143.7968,-249.0628 -0.3779,0.026 c -0.004,-0.0586 -0.0217,-0.3212 -0.0505,-0.7681 l -0.4931,-0.8542 0.3961,-0.6862 c -1.3083,-21.2006 -10.4347,-184.5494 6.4392,-361.9998 10.6092,-111.5673 29.2759,-206.9398 55.482,-283.4684 16.969,-49.5551 37.2048,-91.341 60.5239,-125.1474 -261.8224,72.1639 -469.8518,274.058 -550.5938,532.2081 15.4537,43.1066 44.1329,88.8133 85.7911,136.5919 z"
   id="path12"
   style="fill:url(#linearGradient3064);fill-opacity:1;filter:url(#filter3008)" />
</g>
</svg>
